<?xml version="1.0" encoding="UTF-8" standalone="no"?>
<!-- Created with Inkscape (http://www.inkscape.org/) -->

<svg
   width="48"
   height="48"
   viewBox="0 0 48 48"
   version="1.1"
   id="svg1"
   xml:space="preserve"
   inkscape:version="1.4.2 (ebf0e940d0, 2025-05-08)"
   sodipodi:docname="alice-tools.svg"
   xmlns:inkscape="http://www.inkscape.org/namespaces/inkscape"
   xmlns:sodipodi="http://sodipodi.sourceforge.net/DTD/sodipodi-0.dtd"
   xmlns="http://www.w3.org/2000/svg"
   xmlns:svg="http://www.w3.org/2000/svg"><sodipodi:namedview
     id="namedview1"
     pagecolor="#ffffff"
     bordercolor="#000000"
     borderopacity="0.25"
     inkscape:showpageshadow="2"
     inkscape:pageopacity="0.0"
     inkscape:pagecheckerboard="0"
     inkscape:deskcolor="#d1d1d1"
     inkscape:document-units="px"
     showgrid="false"
     inkscape:zoom="1"
     inkscape:cx="58"
     inkscape:cy="7.5"
     inkscape:window-width="1710"
     inkscape:window-height="1374"
     inkscape:window-x="0"
     inkscape:window-y="0"
     inkscape:window-maximized="0"
     inkscape:current-layer="layer1"><inkscape:grid
       id="grid1"
       units="px"
       originx="0"
       originy="0"
       spacingx="1"
       spacingy="1"
       empcolor="#0099e5"
       empopacity="0.30196078"
       color="#0099e5"
       opacity="0.14901961"
       empspacing="5"
       enabled="true"
       visible="false" /></sodipodi:namedview><defs
     id="defs1"><inkscape:path-effect
       effect="bspline"
       id="path-effect9"
       is_visible="true"
       lpeversion="1.3"
       weight="33.333333"
       steps="2"
       helper_size="0"
       apply_no_weight="true"
       apply_with_weight="true"
       only_selected="false"
       uniform="false" /><inkscape:path-effect
       effect="spiro"
       id="path-effect8"
       is_visible="true"
       lpeversion="1" /></defs><g
     inkscape:label="Layer 1"
     inkscape:groupmode="layer"
     id="layer1"><g
       id="g12"
       style="display:inline;stroke-width:1.99560613;stroke-dasharray:none"
       inkscape:label="hanny"
       transform="matrix(0.96789775,0.25996603,-0.25996603,0.96789775,10.619061,-6.0481902)"><path
         id="path3"
         style="fill:#000000;fill-opacity:1;stroke-width:1.99584931;stroke-dasharray:none"
         d="m 28.823997,14.614083 a 5.6737576,4.3735232 90 0 0 -3.24161,5.481211 5.6737576,4.3735232 90 0 0 4.373913,5.671924 5.6737576,4.3735232 90 0 0 4.372712,-5.673587 5.6737576,4.3735232 90 0 0 -4.373913,-5.671924 5.6737576,4.3735232 90 0 0 -1.131102,0.192376 z m 0.137174,0.66759 a 4.9823027,3.8405263 90 0 1 0.994793,-0.170258 4.9823027,3.8405263 90 0 1 3.83942,4.982696 4.9823027,3.8405263 90 0 1 -3.839949,4.983399 4.9823027,3.8405263 90 0 1 -3.83942,-4.982696 4.9823027,3.8405263 90 0 1 2.845156,-4.813141 z"
         transform="matrix(0.96237707,0.27171745,-0.25040746,0.96814054,0,0)" /><path
         style="fill:#2ca02c;fill-opacity:1;stroke:#000000;stroke-width:1.99560613;stroke-dasharray:none;stroke-opacity:1"
         d="M 5.8831037,39.382774 C 5.171875,38.682292 5.2031244,38.138032 5.6780087,36.198926 6.152893,34.25982 7.0713744,30.926023 7.9898741,27.592159 7.1286661,27.176023 6.267458,26.759886 5.5048161,26.189832 4.7421743,25.619777 4.0781377,24.895847 3.6432335,24.091144 3.2083293,23.286441 3.0026082,22.401059 3.059901,21.588543 c 0.057293,-0.812516 0.3775926,-1.55207 0.8522772,-2.189862 0.4746846,-0.637792 1.1036969,-1.173746 1.8088893,-1.556857 0.7051924,-0.383112 1.4864803,-0.613335 2.3322499,-0.695046 0.8457695,-0.08171 1.7559386,-0.0149 2.6661256,0.05191 0.568894,-2.02498 1.137778,-4.049922 2.059555,-5.999741 0.921777,-1.9498195 2.196377,-3.8243667 3.667039,-5.2929195 1.470663,-1.4685527 3.137296,-2.5310313 4.861273,-3.1768671 1.723976,-0.6458357 3.50519,-0.8749977 5.427086,-0.7604098 1.921895,0.1145878 3.984354,0.5729121 5.776036,1.2708382 1.791682,0.6979261 3.312485,1.6354073 4.557286,2.8072962 1.244801,1.1718889 2.213532,2.578111 2.883199,4.076285 0.669667,1.498175 1.04023,3.088179 1.231045,4.691646 0.190816,1.603468 0.201862,3.220207 0.01799,4.896169 -0.183876,1.675962 -0.56266,3.410978 -0.941451,5.14603 1.160894,0.529223 2.321764,1.058436 3.147137,1.797229 0.825373,0.738793 1.315172,1.687087 1.560086,2.516666 0.244915,0.829579 0.244915,1.540339 0.130652,2.196123 -0.114264,0.655784 -0.342776,1.256511 -0.741172,1.789043 -0.398396,0.532532 -0.966627,0.996806 -1.625767,1.381303 -0.65914,0.384497 -1.409111,0.689173 -2.289334,0.794644 -0.880223,0.105472 -1.890622,0.01172 -2.901037,-0.08203 -0.795873,3.06894 -1.591745,6.137881 -2.387618,9.206821 -0.192108,0.320944 -0.384213,0.641882 -1.355864,0.853864 -0.971651,0.211982 -2.722737,0.31499 -4.307097,0.350128 -1.584361,0.03514 -3.001807,0.0024 -4.717851,-0.157599 C 23.054588,45.343212 21.04015,45.055964 19.117665,44.665575 17.19518,44.275186 15.364877,43.781704 13.777539,43.286352 12.1902,42.790999 10.846014,42.293834 9.4470125,41.616882 8.0480111,40.939931 6.5943323,40.083255 5.8831037,39.382774 Z"
         id="path9"
         inkscape:path-effect="#path-effect9"
         inkscape:original-d="m 5.140625,39.226563 c 0.03125,-0.544271 0.062499,-1.088531 0.09375,-1.632813 0.918518,-3.33393 2.7554991,-10.001591 2.7554991,-10.001591 0,0 -1.722416,-0.832273 -2.5836241,-1.248409 C 4.7421745,25.619777 4.0781379,24.895847 3.4140625,24.171875 3.2083293,23.286441 3.0026082,22.401059 2.796875,21.515625 c 0.3203187,-0.739598 0.6406185,-1.479152 0.9609375,-2.21875 0.6290504,-0.535986 1.2580626,-1.07194 1.8871128,-1.607926 0.7813346,-0.230237 1.5626223,-0.460461 2.3439568,-0.690697 0.9102051,0.06681 2.7305609,0.20044 2.7305609,0.20044 0,0 1.137778,-4.049922 1.706683,-6.074941 C 13.700775,9.2491315 14.975375,7.3745844 16.25,5.5 c 1.6667,-1.0625212 3.333333,-2.125 5,-3.1875 1.781286,-0.2291712 3.5625,-0.4583333 5.34375,-0.6875 2.062541,0.4583425 4.125,0.9166667 6.1875,1.375 1.520864,0.9375188 3.041667,1.875 4.5625,2.8125 0.968769,1.4062781 1.9375,2.8125 2.90625,4.21875 0.370584,1.590099 0.741146,3.180103 1.111731,4.770201 0.01105,1.616837 0.0221,3.233576 0.03314,4.850413 -0.378799,1.735087 -1.136374,5.205155 -1.136374,5.205155 0,0 2.321764,1.058436 3.482682,1.58767 0.489828,0.948352 0.979627,1.896646 1.469456,2.845 0,0.710804 0,1.421564 0,2.132368 -0.228527,0.600764 -0.457039,1.201491 -0.685565,1.802254 -0.568266,0.464301 -1.136497,0.928575 -1.704763,1.392876 -0.750014,0.304694 -1.499985,0.609369 -2.25,0.914063 C 39.559876,35.437498 37.539062,35.25 37.539062,35.25 c -0.795873,3.06894 -1.591745,6.137881 -2.387618,9.206821 0,0 -0.384213,0.641882 -0.576325,0.962833 -1.75119,0.103014 -3.502276,0.206021 -5.253466,0.309034 -1.417531,-0.03273 -2.834977,-0.06547 -4.252508,-0.09821 C 23.054587,45.343216 21.04015,45.055966 19.025592,44.768698 17.19518,44.275187 15.364877,43.781705 13.534466,43.288193 12.1902,42.790999 10.846014,42.293834 9.5017474,41.79664 8.0480109,40.939931 6.5943325,40.083255 5.140625,39.226563 Z"
         sodipodi:nodetypes="ccccccccccccccccccccccccccccccccccc"
         transform="translate(0.00513167,-0.03638168)" /><ellipse
         style="fill:#000000;fill-opacity:1;stroke:#000000;stroke-width:1.99658901;stroke-dasharray:none;stroke-opacity:1"
         id="path10"
         cx="23.3878"
         cy="8.1483202"
         rx="3.8170156"
         ry="5.7378855"
         transform="matrix(0.94879502,0.31589241,-0.27349454,0.96187355,0,0)" /><ellipse
         style="fill:#000000;fill-opacity:1;stroke:#000000;stroke-width:1.996589;stroke-dasharray:none;stroke-opacity:1"
         id="ellipse11"
         cx="36.82872"
         cy="7.0154948"
         rx="3.8170156"
         ry="5.7378855"
         transform="matrix(0.94879502,0.31589241,-0.27349454,0.96187356,0,0)" /><ellipse
         style="fill:#000000;fill-opacity:1;stroke:#000000;stroke-width:2.01753847;stroke-dasharray:none;stroke-opacity:1"
         id="ellipse12"
         cx="20.797611"
         cy="34.514011"
         rx="4.1464634"
         ry="4.9604082"
         transform="matrix(0.9468132,-0.32178371,0.11899446,0.99289492,0,0)" /></g><path
       id="path18"
       style="opacity:1;fill:#666666;fill-opacity:1;stroke:#000000;stroke-width:2;stroke-dasharray:none;stroke-opacity:1"
       d="m 3.6738845,3.6953366 c -1.2339561,0.3381066 -3.13460352,5.4077218 -2.45247,7.9534754 0.8927938,3.328226 3.7421662,5.929662 6.9838056,6.552746 l 5.4748549,20.432431 c 0.435287,1.624518 2.946113,2.370259 4.024,2.08144 1.077886,-0.288818 2.874605,-2.188765 2.43932,-3.813281 L 14.668541,16.469717 C 17.164462,14.309265 18.331188,10.631548 17.440323,7.3029688 16.584312,4.1082932 10.216559,-0.4944137 11.072569,2.7002614 L 12.861575,9.3769239 10.058248,12.180817 6.2237036,11.155532 4.4346959,4.4788752 C 4.2608183,3.8299563 3.9884225,3.6091529 3.6738845,3.6953366 Z" /></g></svg>
